<?xml version="1.0" encoding="UTF-8"?>
<svg id="Calque_1" data-name="Calque 1" xmlns="http://www.w3.org/2000/svg" viewBox="0 0 79.02 73.34">
  <defs>
    <style>
      .cls-1 {
        fill: #f4c868;
      }

      .cls-2 {
        fill: #163251;
      }

      .cls-3 {
        fill: #fff;
      }
    </style>
  </defs>
  <rect class="cls-2" width="79.02" height="73.34"/>
  <g>
    <path class="cls-3" d="M38.83,59.16c-11.8,0-21.74-8.63-21.74-21.85,0-11.31,7.39-19.13,17-21.06l-.11-4.99c-12.28,2.02-21.81,11.72-21.81,26.05,0,16.17,12.13,26.77,26.66,26.77,13.45,0,24.84-9.08,26.45-23.26l-5.04.56c-1.81,10.89-10.87,17.78-21.41,17.78Z"/>
    <path class="cls-1" d="M37.08,15.85l-.11-4.93s14.28-1.63,23,9.68c0,0,6.41,8.73,5.51,17.19l-4.94.55s1.29-23.02-23.46-22.49Z"/>
  </g>
</svg>