<?xml version="1.0" encoding="UTF-8"?>
<svg id="Calque_1" data-name="Calque 1" xmlns="http://www.w3.org/2000/svg" viewBox="0 0 444.48 96.68">
  <defs>
    <style>
      .cls-1 {
        fill: #f4c868;
      }

      .cls-2 {
        fill: #173251;
      }
    </style>
  </defs>
  <g>
    <path class="cls-2" d="M52.9,12.12v9.12H20.51v23.06h25.68v9.12h-25.68v30.92h-9.75V12.12h42.14Z"/>
    <path class="cls-2" d="M108.66,12.12v9.12h-33.02v23.06h28.83v9.12h-28.83v21.8h34.07v9.12h-43.82V12.12h42.77Z"/>
    <path class="cls-2" d="M182.78,72.92c-6.39,7.65-16.04,12.47-27.36,12.47-20.44,0-36.58-16.46-36.58-37s16.14-37.11,36.58-37.11c11.22,0,20.76,4.72,27.15,12.27l-7.34,6.08c-4.93-5.35-11.85-8.91-19.81-8.91-15.2,0-26.84,12.27-26.84,27.67s11.64,27.57,26.84,27.57c8.07,0,15.09-3.46,20.02-9.22l7.34,6.19Z"/>
    <path class="cls-2" d="M229.84,35.39h5.14l-20.65,48.96h-5.56l-20.55-48.96h5.14l18.14,43.61,18.34-43.61Z"/>
    <path class="cls-2" d="M248.92,13.38c2.41,0,4.09,1.68,4.09,3.88s-1.68,3.88-4.09,3.88-4.19-1.68-4.19-3.88,1.78-3.88,4.19-3.88ZM251.33,35.39v48.96h-4.72v-48.96h4.72Z"/>
    <path class="cls-2" d="M297.56,46.61h-4.72c-.84-4.72-5.03-7.65-10.38-7.65s-10.06,2.94-10.8,7.13c-.84,6.81,4.4,9.22,8.49,10.06l7.02,1.68c8.91,2.2,12.05,7.34,12.05,13.52,0,8.39-7.02,14.05-17.19,14.05-7.97,0-16.04-4.72-17.19-13.52h4.4c1.36,3.88,4.4,8.91,13.1,8.91,7.55,0,12.16-3.67,12.16-9.43,0-3.88-2.1-7.34-8.39-8.91l-7.13-1.68c-5.87-1.36-13.21-4.3-12.06-15.31.84-6.71,7.86-11.11,15.51-11.11s14.15,4.19,15.1,12.26Z"/>
    <path class="cls-2" d="M315.48,13.38c2.41,0,4.09,1.68,4.09,3.88s-1.68,3.88-4.09,3.88-4.19-1.68-4.19-3.88,1.78-3.88,4.19-3.88ZM317.89,35.39v48.96h-4.72v-48.96h4.72Z"/>
    <path class="cls-2" d="M392.1,35.39h4.82v9.64c2.83-7.86,10.59-10.69,17.3-10.69,11.74,0,19.5,8.18,19.5,21.28v28.72h-4.72v-28.72c0-10.38-5.98-16.56-14.78-16.56s-16.98,4.82-17.3,17.82v27.46h-4.82v-48.96Z"/>
  </g>
  <g>
    <path class="cls-2" d="M354.75,80.48c-11.8,0-21.74-8.63-21.74-21.85,0-11.31,7.39-19.13,17-21.06l-.11-4.99c-12.28,2.02-21.81,11.72-21.81,26.05,0,16.17,12.13,26.77,26.66,26.77,13.45,0,24.84-9.08,26.45-23.26l-5.04.56c-1.81,10.89-10.87,17.78-21.41,17.78Z"/>
    <path class="cls-1" d="M353,37.17l-.11-4.93s14.28-1.63,23,9.68c0,0,6.41,8.73,5.51,17.19l-4.94.55s1.29-23.02-23.46-22.49Z"/>
  </g>
</svg>